<svg width="48" height="48" viewBox="0 0 48 48" fill="none" xmlns="http://www.w3.org/2000/svg">
<path d="M22.1615 47.9232C22.7679 47.9691 23.3803 47.9965 23.9984 47.9965C24.1747 47.9965 24.3505 47.9886 24.5258 47.9848C23.7371 48.0019 22.9485 47.9834 22.1615 47.9232Z" fill="#EFEFEF"/>
<path d="M27.0249 47.8031C27.1322 47.7896 27.2403 47.78 27.3472 47.765V31.0683H32.9723L34.0417 24.0896H27.3442V19.5602C27.3442 17.6515 28.2794 15.7867 31.2818 15.7867H34.3288V9.84219C34.3288 9.84219 31.5647 9.37062 28.9234 9.3705C23.4094 9.3705 19.8003 12.7125 19.8001 18.7662V24.0867H13.6681V31.0683H19.8001V47.6244C15.1231 46.7971 10.6426 44.5842 7.02926 40.9709C-2.34333 31.5983 -2.34285 16.4025 7.02926 7.02962C16.4021 -2.34321 31.5977 -2.34321 40.9706 7.02962C50.343 16.4025 50.3433 31.5982 40.9706 40.9709C37.0554 44.8858 32.1233 47.1589 27.0249 47.8031Z" fill="#EFEFEF"/>
</svg>
