<svg width="48" height="48" viewBox="0 0 48 48" fill="none" xmlns="http://www.w3.org/2000/svg">
<path d="M23.9984 19.5192C26.4719 19.5196 28.4778 21.5254 28.4781 23.9988C28.4777 26.4721 26.4718 28.478 23.9984 28.4784C21.5253 28.4778 19.5192 26.472 19.5188 23.9988C19.519 21.5255 21.5252 19.5198 23.9984 19.5192Z" fill="#EFEFEF"/>
<path fill-rule="evenodd" clip-rule="evenodd" d="M23.9984 12.98C27.5847 12.98 28.0122 12.9948 29.4273 13.0591C30.737 13.1183 31.4504 13.3379 31.9235 13.522C32.5496 13.7652 32.9975 14.0573 33.4674 14.5269C33.9378 14.9973 34.2319 15.4472 34.4753 16.0738C34.6593 16.5467 34.8776 17.2584 34.9382 18.567C35.0025 19.9837 35.0144 20.4102 35.0144 23.9988C35.0144 27.5876 35.0025 28.0142 34.9382 29.4306C34.8789 30.7394 34.6593 31.4508 34.4753 31.9238C34.2318 32.5508 33.938 33.0002 33.4674 33.4707C32.9974 33.9406 32.5498 34.2324 31.9235 34.4756C31.4504 34.6598 30.736 34.878 29.4273 34.9385C28.0122 35.0028 27.5848 35.0176 23.9984 35.0176C20.4108 35.0176 19.9828 35.0028 18.5667 34.9385C17.2567 34.8792 16.5434 34.6598 16.0705 34.4756C15.4446 34.2324 14.9965 33.9405 14.5265 33.4707C14.0564 33.0005 13.762 32.5505 13.5187 31.9238C13.3347 31.4508 13.1163 30.7375 13.0558 29.4306C12.9915 28.0142 12.9796 27.5875 12.9796 23.9988C12.9796 20.4102 12.9914 19.9837 13.0558 18.567C13.1151 17.2584 13.3347 16.5467 13.5187 16.0738C13.7621 15.447 14.0562 14.9973 14.5265 14.5269C14.9965 14.0571 15.4445 13.7652 16.0705 13.522C16.5435 13.3378 17.2579 13.1197 18.5667 13.0591C19.9828 12.9948 20.4108 12.98 23.9984 12.98ZM23.9984 17.0963C20.1867 17.0969 17.0961 20.187 17.0959 23.9988C17.0963 27.8105 20.1868 30.9007 23.9984 30.9013C27.8102 30.901 30.9006 27.8106 30.901 23.9988C30.9008 20.1869 27.8103 17.0967 23.9984 17.0963ZM31.1734 15.2124C30.2841 15.2135 29.5627 15.9344 29.5621 16.8238C29.5621 17.7138 30.2837 18.437 31.1734 18.4381C32.0641 18.4381 32.7877 17.7145 32.7877 16.8238C32.7871 15.9338 32.0637 15.2124 31.1734 15.2124Z" fill="#EFEFEF"/>
<path fill-rule="evenodd" clip-rule="evenodd" d="M7.02926 7.02962C16.4021 -2.34321 31.5977 -2.34321 40.9706 7.02962C50.343 16.4025 50.3433 31.5982 40.9706 40.9709C31.5978 50.3429 16.4019 50.3431 7.02926 40.9709C-2.34333 31.5983 -2.34285 16.4025 7.02926 7.02962ZM23.9984 10.5571C20.35 10.5571 19.8894 10.5735 18.4553 10.6391C17.0254 10.7048 16.0467 10.9314 15.1916 11.2631C14.3083 11.6061 13.5587 12.0671 12.8126 12.813C12.066 13.5596 11.6058 14.3107 11.2628 15.1949C10.9311 16.0498 10.7044 17.026 10.6387 18.4557C10.5731 19.8887 10.5567 20.3483 10.5567 23.9988C10.5567 27.6493 10.5731 28.1079 10.6387 29.5419C10.7044 30.9714 10.9312 31.9478 11.2628 32.8027C11.6058 33.6868 12.0662 34.4381 12.8126 35.1846C13.5586 35.9305 14.3084 36.3915 15.1916 36.7345C16.0467 37.0662 17.0254 37.2929 18.4553 37.3585C19.8881 37.4241 20.3488 37.4406 23.9984 37.4406C27.6468 37.4406 28.1056 37.4241 29.5386 37.3585C30.9687 37.2929 31.9473 37.0661 32.8024 36.7345C33.6859 36.3915 34.4351 35.9306 35.1814 35.1846C35.9282 34.4378 36.3881 33.687 36.7312 32.8027C37.0629 31.9477 37.2896 30.9718 37.3552 29.5419C37.4208 28.1091 37.4373 27.6494 37.4373 23.9988C37.4373 20.3483 37.4208 19.89 37.3552 18.4557C37.2895 17.0261 37.0628 16.0498 36.7312 15.1949C36.3881 14.3109 35.9279 13.5596 35.1814 12.813C34.4353 12.0673 33.6858 11.606 32.8024 11.2631C31.9473 10.9316 30.9686 10.7047 29.5386 10.6391C28.1069 10.5736 27.6468 10.5571 23.9984 10.5571Z" fill="#EFEFEF"/>
</svg>
