<svg width="48" height="48" viewBox="0 0 48 48" fill="none" xmlns="http://www.w3.org/2000/svg">
<path fill-rule="evenodd" clip-rule="evenodd" d="M7.02926 7.02962C16.4021 -2.34321 31.5977 -2.34321 40.9706 7.02962C50.343 16.4025 50.3433 31.5982 40.9706 40.9709C31.5978 50.3429 16.4019 50.3431 7.02926 40.9709C-2.34333 31.5983 -2.34285 16.4025 7.02926 7.02962ZM11.0753 18.4147V36.8868H16.8147V18.4147H11.0753ZM31.1705 18.0016C28.0748 18.002 26.2221 19.7757 25.4663 20.9841H25.352L25.0883 18.4176H20.1019C20.1762 20.0793 20.2541 22.0047 20.2542 24.3064V36.8868H25.9936V26.2342C25.9936 25.7058 26.0327 25.1757 26.1841 24.7986C26.5989 23.7419 27.5427 22.6462 29.1285 22.6453C31.206 22.6453 32.0376 24.2713 32.0377 26.6502V36.8868H37.7801V25.9705C37.7799 20.5317 34.9468 18.0021 31.1705 18.0016ZM13.9816 10.4076C12.132 10.4084 10.9231 11.6937 10.9229 13.2788C10.9235 14.8634 12.0943 16.146 13.9054 16.147C15.8313 16.147 17.0016 14.864 17.0022 13.2788C16.9654 11.6554 15.8321 10.4076 13.9816 10.4076Z" fill="#EFEFEF"/>
</svg>
