<svg width="48" height="49" viewBox="0 0 48 49" fill="none" xmlns="http://www.w3.org/2000/svg">
<path fill-rule="evenodd" clip-rule="evenodd" d="M7.02943 7.52956C16.402 -1.84303 31.598 -1.84301 40.9706 7.52956C50.3432 16.9022 50.3432 32.0981 40.9706 41.4707C31.598 50.8433 16.402 50.8433 7.02943 41.4707C-2.34314 32.0981 -2.34315 16.9021 7.02943 7.52956ZM24.6959 9.14511C21.6506 9.14511 19.0191 9.93993 16.7939 11.5445C16.4041 11.7527 15.8843 12.1665 15.2384 12.7783C14.6417 13.4242 14.2279 13.9452 14.0046 14.3338C12.7381 16.221 12.1098 18.1485 12.1098 20.1505C12.1098 22.1525 12.5728 23.8076 13.4912 25.1145C13.7485 25.4879 14.1282 25.8941 14.6328 26.3318C15.3128 26.7355 15.7682 26.9348 15.9915 26.9348H16.0899C16.1656 26.9348 16.264 26.9185 16.3801 26.8857C16.5037 26.7608 16.5869 26.5791 16.6197 26.3558C16.8921 25.3707 17.0334 24.808 17.0335 24.6844C17.0335 24.5532 16.9603 24.4194 16.819 24.2958C15.9587 23.3106 15.5273 22.0932 15.5273 20.6538C15.5273 18.6518 16.1391 16.8718 17.3476 15.3252C17.687 14.8686 18.1095 14.4384 18.6053 14.0334C20.2263 12.7921 21.9963 12.1727 24.132 12.1727C26.2677 12.1727 28.0123 12.7178 29.3709 13.8191C30.8431 15.1083 31.5799 16.8328 31.5799 18.9332C31.5799 21.0336 31.1901 22.9536 30.413 24.6831C30.1897 25.1953 29.9488 25.6342 29.7091 25.99C28.6419 27.5201 27.3993 28.2909 25.9763 28.291C25.2989 28.291 24.6844 28.0993 24.1306 27.7107C23.4532 27.1569 23.1139 26.4794 23.1139 25.6758V25.5282C23.1139 25.1548 23.3133 24.3525 23.7018 23.1024C24.3969 20.9263 24.7438 19.4377 24.7438 18.643C24.7438 18.1131 24.6453 17.6338 24.446 17.2112C23.9994 16.4089 23.3044 16.0027 22.3621 16.0027C21.5093 16.0027 20.765 16.3938 20.1355 17.162C19.3572 18.122 18.9686 19.2296 18.9686 20.5125C18.9686 21.5633 19.1679 22.4994 19.5565 23.3257L17.4473 32.3126C17.1407 33.4946 16.9831 34.7208 16.9831 35.9785V36.3405C16.9831 37.3434 17.0587 38.4031 17.2 39.5195C17.2 39.7088 17.2568 39.8261 17.3729 39.8589H17.5381C17.5885 39.758 17.779 39.5107 18.1007 39.1057C18.7958 38.1609 19.342 37.3258 19.7469 36.5815C20.0699 35.9028 20.4093 35.1674 20.765 34.3815C21.0375 33.3143 21.4601 31.5759 22.0227 29.1677C22.1387 29.3254 22.3041 29.531 22.5097 29.7971C22.849 30.0847 23.1139 30.2841 23.3133 30.4002C24.3136 31.046 25.3152 31.3677 26.3156 31.3677C26.3989 31.3513 26.4481 31.3425 26.4658 31.3425H26.4822C27.5077 31.3425 28.5094 31.152 29.4934 30.7635C31.2065 30.0684 32.6382 28.8687 33.7799 27.1732C35.1877 24.8962 35.8891 22.2648 35.8891 19.2712L35.8904 19.2737C35.8904 18.1485 35.6936 17.0068 35.2874 15.8563C34.4018 13.7383 32.97 12.0744 30.9932 10.8659C29.1565 9.71665 27.0549 9.14511 24.6959 9.14511Z" fill="#EFEFEF"/>
</svg>
