<svg width="48" height="48" viewBox="0 0 48 48" fill="none" xmlns="http://www.w3.org/2000/svg">
<path fill-rule="evenodd" clip-rule="evenodd" d="M7.02924 7.0295C16.4021 -2.34333 31.5978 -2.34333 40.9706 7.0295C50.343 16.4023 50.3433 31.5981 40.9706 40.9708C31.5978 50.3428 16.4019 50.343 7.02924 40.9708C-2.34331 31.5982 -2.34285 16.4024 7.02924 7.0295ZM24.8154 9.01856V10.437C24.8116 16.7595 24.8344 23.0783 24.8002 29.397C24.785 32.0026 22.7732 33.8269 20.1606 33.7283C17.8522 33.6411 16.0001 31.6081 16.0876 29.2604C16.1789 26.7989 18.2477 25.0088 20.8337 25.1491C21.0999 25.1643 21.37 25.1529 21.64 25.1529V20.1161C21.2825 20.0668 20.9744 20.0061 20.6626 19.991C14.9391 19.7141 10.1436 25.0012 10.9764 30.6638C11.6762 35.4009 16.1218 39.2543 20.5561 38.9661C26.1046 38.602 29.9342 34.7106 29.9646 29.378C29.9799 26.2187 29.9646 23.0593 29.9684 19.8999C29.9684 19.642 30.0141 19.3841 30.0445 19.0276C32.273 20.4499 34.5434 21.2957 37.118 21.1819V16.2134C32.8815 15.6179 30.383 13.3423 29.8886 9.01856H24.8154Z" fill="#EFEFEF"/>
</svg>
