<svg width="48" height="48" viewBox="0 0 48 48" fill="none" xmlns="http://www.w3.org/2000/svg">
<path d="M28.4868 23.533L21.221 27.2977V19.7448L28.4868 23.533Z" fill="#EFEFEF"/>
<path fill-rule="evenodd" clip-rule="evenodd" d="M7.02926 7.02962C16.4021 -2.34321 31.5977 -2.34321 40.9706 7.02962C50.343 16.4025 50.3433 31.5982 40.9706 40.9709C31.5978 50.3429 16.4019 50.3431 7.02926 40.9709C-2.34333 31.5983 -2.34285 16.4025 7.02926 7.02962ZM14.3976 14.7847C12.2863 14.7849 10.5573 16.5115 10.5567 18.6227V29.3749C10.5567 31.4866 12.2859 33.2157 14.3976 33.2158H33.5993C35.7107 33.2154 37.4373 31.4864 37.4373 29.3749V18.6227C37.4367 16.5116 35.7103 14.7852 33.5993 14.7847H14.3976Z" fill="#EFEFEF"/>
</svg>
